<?xml version="1.0" encoding="UTF-8" standalone="no"?><svg xmlns="http://www.w3.org/2000/svg" xmlns:xlink="http://www.w3.org/1999/xlink" contentScriptType="application/ecmascript" contentStyleType="text/css" height="69px" preserveAspectRatio="none" style="width:1024px;height:69px;" version="1.1" viewBox="0 0 1024 69" width="1024px" zoomAndPan="magnify"><defs><filter height="300%" id="fq225uj5xeuap" width="300%" x="-1" y="-1"><feGaussianBlur result="blurOut" stdDeviation="2.0"/><feColorMatrix in="blurOut" result="blurOut2" type="matrix" values="0 0 0 0 0 0 0 0 0 0 0 0 0 0 0 0 0 0 .4 0"/><feOffset dx="4.0" dy="4.0" in="blurOut2" result="blurOut3"/><feBlend in="SourceGraphic" in2="blurOut3" mode="normal"/></filter></defs><g><!--MD5=[9a7fd75811ea1be5d8ee8778452f6f3f]
class 最寄駅--><rect fill="#FEFECE" filter="url(#fq225uj5xeuap)" height="48" id="最寄駅" style="stroke:#A80036;stroke-width:1.5;" width="68" x="7" y="7"/><ellipse cx="22" cy="23" fill="#ADD1B2" rx="11" ry="11" style="stroke:#A80036;stroke-width:1.0;"/><path d="M21.9375,18.8281 Q21.1875,18.8281 20.625,19.125 Q20.0625,19.4063 19.6719,19.9375 Q19.2813,20.4688 19.0781,21.25 Q18.8906,22.0156 18.8906,22.9688 Q18.8906,23.9375 19.0625,24.7031 Q19.25,25.4531 19.6094,25.9688 Q19.9844,26.4844 20.5625,26.7656 Q21.1406,27.0313 21.9375,27.0313 Q22.6719,27.0313 23.4063,26.8594 Q24.1563,26.6875 25.0313,26.3906 L25.0313,28.5469 Q24.625,28.7031 24.2344,28.8281 Q23.8438,28.9375 23.4375,29.0156 Q23.0313,29.0938 22.6094,29.125 Q22.1875,29.1719 21.6875,29.1719 Q20.2813,29.1719 19.25,28.7188 Q18.2344,28.2656 17.5625,27.4531 Q16.8906,26.6406 16.5625,25.5 Q16.2344,24.3438 16.2344,22.9531 Q16.2344,21.5781 16.6094,20.4219 Q16.9844,19.2656 17.7031,18.4375 Q18.4219,17.6094 19.4844,17.1563 Q20.5469,16.6875 21.9375,16.6875 Q22.8438,16.6875 23.75,16.9219 Q24.6563,17.1406 25.4844,17.5469 L24.6563,19.6406 Q23.9688,19.3125 23.2813,19.0781 Q22.5938,18.8281 21.9375,18.8281 Z " fill="#000000"/><text fill="#000000" font-family="sans-serif" font-size="12" lengthAdjust="spacingAndGlyphs" textLength="36" x="36" y="27.1543">最寄駅</text><line style="stroke:#A80036;stroke-width:1.5;" x1="8" x2="74" y1="39" y2="39"/><line style="stroke:#A80036;stroke-width:1.5;" x1="8" x2="74" y1="47" y2="47"/><!--MD5=[c5eb1c854da9b6a1abe811e4ee0e3261]
class 新大久保--><rect fill="#FEFECE" filter="url(#fq225uj5xeuap)" height="48" id="新大久保" style="stroke:#A80036;stroke-width:1.5;" width="80" x="110" y="7"/><ellipse cx="125" cy="23" fill="#ADD1B2" rx="11" ry="11" style="stroke:#A80036;stroke-width:1.0;"/><path d="M124.9375,18.8281 Q124.1875,18.8281 123.625,19.125 Q123.0625,19.4063 122.6719,19.9375 Q122.2813,20.4688 122.0781,21.25 Q121.8906,22.0156 121.8906,22.9688 Q121.8906,23.9375 122.0625,24.7031 Q122.25,25.4531 122.6094,25.9688 Q122.9844,26.4844 123.5625,26.7656 Q124.1406,27.0313 124.9375,27.0313 Q125.6719,27.0313 126.4063,26.8594 Q127.1563,26.6875 128.0313,26.3906 L128.0313,28.5469 Q127.625,28.7031 127.2344,28.8281 Q126.8438,28.9375 126.4375,29.0156 Q126.0313,29.0938 125.6094,29.125 Q125.1875,29.1719 124.6875,29.1719 Q123.2813,29.1719 122.25,28.7188 Q121.2344,28.2656 120.5625,27.4531 Q119.8906,26.6406 119.5625,25.5 Q119.2344,24.3438 119.2344,22.9531 Q119.2344,21.5781 119.6094,20.4219 Q119.9844,19.2656 120.7031,18.4375 Q121.4219,17.6094 122.4844,17.1563 Q123.5469,16.6875 124.9375,16.6875 Q125.8438,16.6875 126.75,16.9219 Q127.6563,17.1406 128.4844,17.5469 L127.6563,19.6406 Q126.9688,19.3125 126.2813,19.0781 Q125.5938,18.8281 124.9375,18.8281 Z " fill="#000000"/><text fill="#000000" font-family="sans-serif" font-size="12" lengthAdjust="spacingAndGlyphs" textLength="48" x="139" y="27.1543">新大久保</text><line style="stroke:#A80036;stroke-width:1.5;" x1="111" x2="189" y1="39" y2="39"/><line style="stroke:#A80036;stroke-width:1.5;" x1="111" x2="189" y1="47" y2="47"/><!--MD5=[3ef0788f7ff5380bfa5cffc95d8ab5ef]
class 通学時間--><rect fill="#FEFECE" filter="url(#fq225uj5xeuap)" height="48" id="通学時間" style="stroke:#A80036;stroke-width:1.5;" width="80" x="225" y="7"/><ellipse cx="240" cy="23" fill="#ADD1B2" rx="11" ry="11" style="stroke:#A80036;stroke-width:1.0;"/><path d="M239.9375,18.8281 Q239.1875,18.8281 238.625,19.125 Q238.0625,19.4063 237.6719,19.9375 Q237.2813,20.4688 237.0781,21.25 Q236.8906,22.0156 236.8906,22.9688 Q236.8906,23.9375 237.0625,24.7031 Q237.25,25.4531 237.6094,25.9688 Q237.9844,26.4844 238.5625,26.7656 Q239.1406,27.0313 239.9375,27.0313 Q240.6719,27.0313 241.4063,26.8594 Q242.1563,26.6875 243.0313,26.3906 L243.0313,28.5469 Q242.625,28.7031 242.2344,28.8281 Q241.8438,28.9375 241.4375,29.0156 Q241.0313,29.0938 240.6094,29.125 Q240.1875,29.1719 239.6875,29.1719 Q238.2813,29.1719 237.25,28.7188 Q236.2344,28.2656 235.5625,27.4531 Q234.8906,26.6406 234.5625,25.5 Q234.2344,24.3438 234.2344,22.9531 Q234.2344,21.5781 234.6094,20.4219 Q234.9844,19.2656 235.7031,18.4375 Q236.4219,17.6094 237.4844,17.1563 Q238.5469,16.6875 239.9375,16.6875 Q240.8438,16.6875 241.75,16.9219 Q242.6563,17.1406 243.4844,17.5469 L242.6563,19.6406 Q241.9688,19.3125 241.2813,19.0781 Q240.5938,18.8281 239.9375,18.8281 Z " fill="#000000"/><text fill="#000000" font-family="sans-serif" font-size="12" lengthAdjust="spacingAndGlyphs" textLength="48" x="254" y="27.1543">通学時間</text><line style="stroke:#A80036;stroke-width:1.5;" x1="226" x2="304" y1="39" y2="39"/><line style="stroke:#A80036;stroke-width:1.5;" x1="226" x2="304" y1="47" y2="47"/><!--MD5=[68f13a603cab45139a232393b03ba121]
class 60分--><rect fill="#FEFECE" filter="url(#fq225uj5xeuap)" height="48" id="60分" style="stroke:#A80036;stroke-width:1.5;" width="58" x="340" y="7"/><ellipse cx="355" cy="23" fill="#ADD1B2" rx="11" ry="11" style="stroke:#A80036;stroke-width:1.0;"/><path d="M354.9375,18.8281 Q354.1875,18.8281 353.625,19.125 Q353.0625,19.4063 352.6719,19.9375 Q352.2813,20.4688 352.0781,21.25 Q351.8906,22.0156 351.8906,22.9688 Q351.8906,23.9375 352.0625,24.7031 Q352.25,25.4531 352.6094,25.9688 Q352.9844,26.4844 353.5625,26.7656 Q354.1406,27.0313 354.9375,27.0313 Q355.6719,27.0313 356.4063,26.8594 Q357.1563,26.6875 358.0313,26.3906 L358.0313,28.5469 Q357.625,28.7031 357.2344,28.8281 Q356.8438,28.9375 356.4375,29.0156 Q356.0313,29.0938 355.6094,29.125 Q355.1875,29.1719 354.6875,29.1719 Q353.2813,29.1719 352.25,28.7188 Q351.2344,28.2656 350.5625,27.4531 Q349.8906,26.6406 349.5625,25.5 Q349.2344,24.3438 349.2344,22.9531 Q349.2344,21.5781 349.6094,20.4219 Q349.9844,19.2656 350.7031,18.4375 Q351.4219,17.6094 352.4844,17.1563 Q353.5469,16.6875 354.9375,16.6875 Q355.8438,16.6875 356.75,16.9219 Q357.6563,17.1406 358.4844,17.5469 L357.6563,19.6406 Q356.9688,19.3125 356.2813,19.0781 Q355.5938,18.8281 354.9375,18.8281 Z " fill="#000000"/><text fill="#000000" font-family="sans-serif" font-size="12" lengthAdjust="spacingAndGlyphs" textLength="26" x="369" y="27.1543">60分</text><line style="stroke:#A80036;stroke-width:1.5;" x1="341" x2="397" y1="39" y2="39"/><line style="stroke:#A80036;stroke-width:1.5;" x1="341" x2="397" y1="47" y2="47"/><!--MD5=[40ab9ae7e3fdb0052983664091732efe]
class 学食--><rect fill="#FEFECE" filter="url(#fq225uj5xeuap)" height="48" id="学食" style="stroke:#A80036;stroke-width:1.5;" width="56" x="433" y="7"/><ellipse cx="448" cy="23" fill="#ADD1B2" rx="11" ry="11" style="stroke:#A80036;stroke-width:1.0;"/><path d="M447.9375,18.8281 Q447.1875,18.8281 446.625,19.125 Q446.0625,19.4063 445.6719,19.9375 Q445.2813,20.4688 445.0781,21.25 Q444.8906,22.0156 444.8906,22.9688 Q444.8906,23.9375 445.0625,24.7031 Q445.25,25.4531 445.6094,25.9688 Q445.9844,26.4844 446.5625,26.7656 Q447.1406,27.0313 447.9375,27.0313 Q448.6719,27.0313 449.4063,26.8594 Q450.1563,26.6875 451.0313,26.3906 L451.0313,28.5469 Q450.625,28.7031 450.2344,28.8281 Q449.8438,28.9375 449.4375,29.0156 Q449.0313,29.0938 448.6094,29.125 Q448.1875,29.1719 447.6875,29.1719 Q446.2813,29.1719 445.25,28.7188 Q444.2344,28.2656 443.5625,27.4531 Q442.8906,26.6406 442.5625,25.5 Q442.2344,24.3438 442.2344,22.9531 Q442.2344,21.5781 442.6094,20.4219 Q442.9844,19.2656 443.7031,18.4375 Q444.4219,17.6094 445.4844,17.1563 Q446.5469,16.6875 447.9375,16.6875 Q448.8438,16.6875 449.75,16.9219 Q450.6563,17.1406 451.4844,17.5469 L450.6563,19.6406 Q449.9688,19.3125 449.2813,19.0781 Q448.5938,18.8281 447.9375,18.8281 Z " fill="#000000"/><text fill="#000000" font-family="sans-serif" font-size="12" lengthAdjust="spacingAndGlyphs" textLength="24" x="462" y="27.1543">学食</text><line style="stroke:#A80036;stroke-width:1.5;" x1="434" x2="488" y1="39" y2="39"/><line style="stroke:#A80036;stroke-width:1.5;" x1="434" x2="488" y1="47" y2="47"/><!--MD5=[cf58d71d4e787cb8979bfc8405ce1637]
class 有り--><rect fill="#FEFECE" filter="url(#fq225uj5xeuap)" height="48" id="有り" style="stroke:#A80036;stroke-width:1.5;" width="56" x="524" y="7"/><ellipse cx="539" cy="23" fill="#ADD1B2" rx="11" ry="11" style="stroke:#A80036;stroke-width:1.0;"/><path d="M538.9375,18.8281 Q538.1875,18.8281 537.625,19.125 Q537.0625,19.4063 536.6719,19.9375 Q536.2813,20.4688 536.0781,21.25 Q535.8906,22.0156 535.8906,22.9688 Q535.8906,23.9375 536.0625,24.7031 Q536.25,25.4531 536.6094,25.9688 Q536.9844,26.4844 537.5625,26.7656 Q538.1406,27.0313 538.9375,27.0313 Q539.6719,27.0313 540.4063,26.8594 Q541.1563,26.6875 542.0313,26.3906 L542.0313,28.5469 Q541.625,28.7031 541.2344,28.8281 Q540.8438,28.9375 540.4375,29.0156 Q540.0313,29.0938 539.6094,29.125 Q539.1875,29.1719 538.6875,29.1719 Q537.2813,29.1719 536.25,28.7188 Q535.2344,28.2656 534.5625,27.4531 Q533.8906,26.6406 533.5625,25.5 Q533.2344,24.3438 533.2344,22.9531 Q533.2344,21.5781 533.6094,20.4219 Q533.9844,19.2656 534.7031,18.4375 Q535.4219,17.6094 536.4844,17.1563 Q537.5469,16.6875 538.9375,16.6875 Q539.8438,16.6875 540.75,16.9219 Q541.6563,17.1406 542.4844,17.5469 L541.6563,19.6406 Q540.9688,19.3125 540.2813,19.0781 Q539.5938,18.8281 538.9375,18.8281 Z " fill="#000000"/><text fill="#000000" font-family="sans-serif" font-size="12" lengthAdjust="spacingAndGlyphs" textLength="24" x="553" y="27.1543">有り</text><line style="stroke:#A80036;stroke-width:1.5;" x1="525" x2="579" y1="39" y2="39"/><line style="stroke:#A80036;stroke-width:1.5;" x1="525" x2="579" y1="47" y2="47"/><!--MD5=[0a92cc00c2e33ccbda7d5f66875195a7]
class 自転車通学--><rect fill="#FEFECE" filter="url(#fq225uj5xeuap)" height="48" id="自転車通学" style="stroke:#A80036;stroke-width:1.5;" width="92" x="615" y="7"/><ellipse cx="630" cy="23" fill="#ADD1B2" rx="11" ry="11" style="stroke:#A80036;stroke-width:1.0;"/><path d="M629.9375,18.8281 Q629.1875,18.8281 628.625,19.125 Q628.0625,19.4063 627.6719,19.9375 Q627.2813,20.4688 627.0781,21.25 Q626.8906,22.0156 626.8906,22.9688 Q626.8906,23.9375 627.0625,24.7031 Q627.25,25.4531 627.6094,25.9688 Q627.9844,26.4844 628.5625,26.7656 Q629.1406,27.0313 629.9375,27.0313 Q630.6719,27.0313 631.4063,26.8594 Q632.1563,26.6875 633.0313,26.3906 L633.0313,28.5469 Q632.625,28.7031 632.2344,28.8281 Q631.8438,28.9375 631.4375,29.0156 Q631.0313,29.0938 630.6094,29.125 Q630.1875,29.1719 629.6875,29.1719 Q628.2813,29.1719 627.25,28.7188 Q626.2344,28.2656 625.5625,27.4531 Q624.8906,26.6406 624.5625,25.5 Q624.2344,24.3438 624.2344,22.9531 Q624.2344,21.5781 624.6094,20.4219 Q624.9844,19.2656 625.7031,18.4375 Q626.4219,17.6094 627.4844,17.1563 Q628.5469,16.6875 629.9375,16.6875 Q630.8438,16.6875 631.75,16.9219 Q632.6563,17.1406 633.4844,17.5469 L632.6563,19.6406 Q631.9688,19.3125 631.2813,19.0781 Q630.5938,18.8281 629.9375,18.8281 Z " fill="#000000"/><text fill="#000000" font-family="sans-serif" font-size="12" lengthAdjust="spacingAndGlyphs" textLength="60" x="644" y="27.1543">自転車通学</text><line style="stroke:#A80036;stroke-width:1.5;" x1="616" x2="706" y1="39" y2="39"/><line style="stroke:#A80036;stroke-width:1.5;" x1="616" x2="706" y1="47" y2="47"/><!--MD5=[07706a779ee7d24e7820c6af9af57f5b]
class NG--><rect fill="#FEFECE" filter="url(#fq225uj5xeuap)" height="48" id="NG" style="stroke:#A80036;stroke-width:1.5;" width="49" x="742.5" y="7"/><ellipse cx="757.5" cy="23" fill="#ADD1B2" rx="11" ry="11" style="stroke:#A80036;stroke-width:1.0;"/><path d="M757.4375,18.8281 Q756.6875,18.8281 756.125,19.125 Q755.5625,19.4063 755.1719,19.9375 Q754.7813,20.4688 754.5781,21.25 Q754.3906,22.0156 754.3906,22.9688 Q754.3906,23.9375 754.5625,24.7031 Q754.75,25.4531 755.1094,25.9688 Q755.4844,26.4844 756.0625,26.7656 Q756.6406,27.0313 757.4375,27.0313 Q758.1719,27.0313 758.9063,26.8594 Q759.6563,26.6875 760.5313,26.3906 L760.5313,28.5469 Q760.125,28.7031 759.7344,28.8281 Q759.3438,28.9375 758.9375,29.0156 Q758.5313,29.0938 758.1094,29.125 Q757.6875,29.1719 757.1875,29.1719 Q755.7813,29.1719 754.75,28.7188 Q753.7344,28.2656 753.0625,27.4531 Q752.3906,26.6406 752.0625,25.5 Q751.7344,24.3438 751.7344,22.9531 Q751.7344,21.5781 752.1094,20.4219 Q752.4844,19.2656 753.2031,18.4375 Q753.9219,17.6094 754.9844,17.1563 Q756.0469,16.6875 757.4375,16.6875 Q758.3438,16.6875 759.25,16.9219 Q760.1563,17.1406 760.9844,17.5469 L760.1563,19.6406 Q759.4688,19.3125 758.7813,19.0781 Q758.0938,18.8281 757.4375,18.8281 Z " fill="#000000"/><text fill="#000000" font-family="sans-serif" font-size="12" lengthAdjust="spacingAndGlyphs" textLength="17" x="771.5" y="27.1543">NG</text><line style="stroke:#A80036;stroke-width:1.5;" x1="743.5" x2="790.5" y1="39" y2="39"/><line style="stroke:#A80036;stroke-width:1.5;" x1="743.5" x2="790.5" y1="47" y2="47"/><!--MD5=[2d3e2a7fe8e0f86e62c6b45e20ea5593]
class 学校形態--><rect fill="#FEFECE" filter="url(#fq225uj5xeuap)" height="48" id="学校形態" style="stroke:#A80036;stroke-width:1.5;" width="80" x="827" y="7"/><ellipse cx="842" cy="23" fill="#ADD1B2" rx="11" ry="11" style="stroke:#A80036;stroke-width:1.0;"/><path d="M841.9375,18.8281 Q841.1875,18.8281 840.625,19.125 Q840.0625,19.4063 839.6719,19.9375 Q839.2813,20.4688 839.0781,21.25 Q838.8906,22.0156 838.8906,22.9688 Q838.8906,23.9375 839.0625,24.7031 Q839.25,25.4531 839.6094,25.9688 Q839.9844,26.4844 840.5625,26.7656 Q841.1406,27.0313 841.9375,27.0313 Q842.6719,27.0313 843.4063,26.8594 Q844.1563,26.6875 845.0313,26.3906 L845.0313,28.5469 Q844.625,28.7031 844.2344,28.8281 Q843.8438,28.9375 843.4375,29.0156 Q843.0313,29.0938 842.6094,29.125 Q842.1875,29.1719 841.6875,29.1719 Q840.2813,29.1719 839.25,28.7188 Q838.2344,28.2656 837.5625,27.4531 Q836.8906,26.6406 836.5625,25.5 Q836.2344,24.3438 836.2344,22.9531 Q836.2344,21.5781 836.6094,20.4219 Q836.9844,19.2656 837.7031,18.4375 Q838.4219,17.6094 839.4844,17.1563 Q840.5469,16.6875 841.9375,16.6875 Q842.8438,16.6875 843.75,16.9219 Q844.6563,17.1406 845.4844,17.5469 L844.6563,19.6406 Q843.9688,19.3125 843.2813,19.0781 Q842.5938,18.8281 841.9375,18.8281 Z " fill="#000000"/><text fill="#000000" font-family="sans-serif" font-size="12" lengthAdjust="spacingAndGlyphs" textLength="48" x="856" y="27.1543">学校形態</text><line style="stroke:#A80036;stroke-width:1.5;" x1="828" x2="906" y1="39" y2="39"/><line style="stroke:#A80036;stroke-width:1.5;" x1="828" x2="906" y1="47" y2="47"/><!--MD5=[f07a7f7ae81fe23fbef2589a7cb86304]
class 男子校--><rect fill="#FEFECE" filter="url(#fq225uj5xeuap)" height="48" id="男子校" style="stroke:#A80036;stroke-width:1.5;" width="68" x="942" y="7"/><ellipse cx="957" cy="23" fill="#ADD1B2" rx="11" ry="11" style="stroke:#A80036;stroke-width:1.0;"/><path d="M956.9375,18.8281 Q956.1875,18.8281 955.625,19.125 Q955.0625,19.4063 954.6719,19.9375 Q954.2813,20.4688 954.0781,21.25 Q953.8906,22.0156 953.8906,22.9688 Q953.8906,23.9375 954.0625,24.7031 Q954.25,25.4531 954.6094,25.9688 Q954.9844,26.4844 955.5625,26.7656 Q956.1406,27.0313 956.9375,27.0313 Q957.6719,27.0313 958.4063,26.8594 Q959.1563,26.6875 960.0313,26.3906 L960.0313,28.5469 Q959.625,28.7031 959.2344,28.8281 Q958.8438,28.9375 958.4375,29.0156 Q958.0313,29.0938 957.6094,29.125 Q957.1875,29.1719 956.6875,29.1719 Q955.2813,29.1719 954.25,28.7188 Q953.2344,28.2656 952.5625,27.4531 Q951.8906,26.6406 951.5625,25.5 Q951.2344,24.3438 951.2344,22.9531 Q951.2344,21.5781 951.6094,20.4219 Q951.9844,19.2656 952.7031,18.4375 Q953.4219,17.6094 954.4844,17.1563 Q955.5469,16.6875 956.9375,16.6875 Q957.8438,16.6875 958.75,16.9219 Q959.6563,17.1406 960.4844,17.5469 L959.6563,19.6406 Q958.9688,19.3125 958.2813,19.0781 Q957.5938,18.8281 956.9375,18.8281 Z " fill="#000000"/><text fill="#000000" font-family="sans-serif" font-size="12" lengthAdjust="spacingAndGlyphs" textLength="36" x="971" y="27.1543">男子校</text><line style="stroke:#A80036;stroke-width:1.5;" x1="943" x2="1009" y1="39" y2="39"/><line style="stroke:#A80036;stroke-width:1.5;" x1="943" x2="1009" y1="47" y2="47"/><!--MD5=[a76011e448112aa7918a95bc4e7ad081]
link 最寄駅 to 新大久保--><path codeLine="3" d="M75.06,31 C84.95,31 94.84,31 104.73,31 " fill="none" id="最寄駅-to-新大久保" style="stroke:#A80036;stroke-width:1.0;"/><polygon fill="#A80036" points="109.9,31,100.9,27,104.9,31,100.9,35,109.9,31" style="stroke:#A80036;stroke-width:1.0;"/><!--MD5=[cd3a22cbed77d6edc4cee5ba0e9367c1]
link 通学時間 to 60分--><path codeLine="4" d="M305.22,31 C314.98,31 324.74,31 334.5,31 " fill="none" id="通学時間-to-60分" style="stroke:#A80036;stroke-width:1.0;"/><polygon fill="#A80036" points="339.6,31,330.6,27,334.6,31,330.6,35,339.6,31" style="stroke:#A80036;stroke-width:1.0;"/><!--MD5=[a6d4962e2474050666263dc91f490911]
link 学食 to 有り--><path codeLine="5" d="M489.08,31 C498.99,31 508.89,31 518.8,31 " fill="none" id="学食-to-有り" style="stroke:#A80036;stroke-width:1.0;"/><polygon fill="#A80036" points="523.98,31,514.98,27,518.98,31,514.98,35,523.98,31" style="stroke:#A80036;stroke-width:1.0;"/><!--MD5=[2259c7977b65a5cd9751f157db48eb17]
link 自転車通学 to NG--><path codeLine="6" d="M707.38,31 C717.29,31 727.21,31 737.13,31 " fill="none" id="自転車通学-to-NG" style="stroke:#A80036;stroke-width:1.0;"/><polygon fill="#A80036" points="742.31,31,733.31,27,737.31,31,733.31,35,742.31,31" style="stroke:#A80036;stroke-width:1.0;"/><!--MD5=[3d3d6420da120bed928e5946c0a690b5]
link 学校形態 to 男子校--><path codeLine="7" d="M907.02,31 C916.89,31 926.76,31 936.62,31 " fill="none" id="学校形態-to-男子校" style="stroke:#A80036;stroke-width:1.0;"/><polygon fill="#A80036" points="941.78,31,932.78,27,936.78,31,932.78,35,941.78,31" style="stroke:#A80036;stroke-width:1.0;"/><!--MD5=[eef501cf884de883699c18fcf67cf35c]
@startuml azabugakuen_info

!startsub INFO
  最寄駅 => 新大久保
  通学時間 => 60分
  学食 => 有り
  自転車通学 => NG
  学校形態 => 男子校
!endsub INFO

@enduml

@startuml azabugakuen_info

  最寄駅 => 新大久保
  通学時間 => 60分
  学食 => 有り
  自転車通学 => NG
  学校形態 => 男子校

@enduml

PlantUML version 1.2020.23(Sun Dec 13 19:14:58 GMT 2020)
(GPL source distribution)
Java Runtime: OpenJDK Runtime Environment
JVM: OpenJDK 64-Bit Server VM
Default Encoding: UTF-8
Language: en
Country: US
--></g></svg>